# xmcd CD database file
#
# Track frame offsets:
#	150
#	16869
#	36901
#	54170
#	77073
#	95860
#	109046
#	132615
#	159762
#	183138
#	200731
#	212166
#	239744
#	258848
#	278541
#
# Disc length: 4034 seconds
#
# Revision: 1
# Processed by: cddbd v1.5.2PL0 Copyright (c) Steve Scherf et al.
# Submitted via: CDex 1.70beta2
#
DISCID=cb0fc00f
DTITLE=YG - Bar Fly
DYEAR=2005
DGENRE=House
TTITLE0=Susanna Clasen - Bar Fly
TTITLE1=Jojo Effects - Moods
TTITLE2=VIP Conaction - Me Too
TTITLE3=Daiquiro - Rosy
TTITLE4=Lenny Mc Dowell - Deepest Inner
TTITLE5=Jose Feliciano - Light My Fire
TTITLE6=Apricot Soul - Phantastic Philadelphia
TTITLE7=Kitty The Bill - Tastes Like Chili
TTITLE8=Jp-Juice - Beefcake
TTITLE9=Pluto Project - Erophone
TTITLE10=Ray Charles - In The Heat Of The Night
TTITLE11=Blackfish - Infinite
TTITLE12=Bazille Noir - Room 505
TTITLE13=A Vida Azul - Pedra Fria
TTITLE14=Nova June - Nothing's Wrong
EXTD=YEAR: 2005
EXTT0=
EXTT1=
EXTT2=
EXTT3=
EXTT4=
EXTT5=
EXTT6=
EXTT7=
EXTT8=
EXTT9=
EXTT10=
EXTT11=
EXTT12=
EXTT13=
EXTT14=
PLAYORDER=
